.
 
http://www.scenetime.com    -   SceneTime [ We been having it ] !!!


How come you press harder on a remote control when you know the battery is dead? so you better seed to get speed ;)

        Seed back for speed


...................................NFO:.................................................








































          
          
              
              
                    
                    
                    
                    

Slime.City.Massacre.2010.DVDRiP.XviD-SiC

Poster:
[img]http://leetleech.org/images/18828162244609545836.jpg[/img]

IMDB Link:
http://www.imdb.com/title/tt1401631/

Description:
In the wake of a "dirty bomb" attack, a New York City 
neighborhood known as "Slime City" has been evacuated... 

Mediainfo:
General
Complete name                    : Slime.City.Massacre.2010.DVDRiP.XviD-SiC.avi
Format                           : AVI
Format/Info                      : Audio Video Interleave
File size                        : 1.00 GiB
Duration                         : 1h 24mn
Overall bit rate                 : 1 685 Kbps
Writing application              : VirtualDubMod 1.5.4.1 (build 2178/release)
Writing library                  : VirtualDubMod build 2178/release

Video
ID                               : 0
Format                           : MPEG-4 Visual
Format profile                   : Advanced Simple@L5
Format settings, BVOP            : 1
Format settings, QPel            : No
Format settings, GMC             : No warppoints
Format settings, Matrix          : Custom
Codec ID                         : XVID
Codec ID/Hint                    : XviD
Duration                         : 1h 24mn
Bit rate                         : 1 582 Kbps
Width                            : 720 pixels
Height                           : 416 pixels
Display aspect ratio             : 16:9
Frame rate                       : 23.976 fps
Color space                      : YUV
Chroma subsampling               : 4:2:0
Bit depth                        : 8 bits
Scan type                        : Progressive
Compression mode                 : Lossy
Bits/(Pixel*Frame)               : 0.220
Stream size                      : 962 MiB (94%)
Writing library                  : XviD 63

Audio
ID                               : 1
Format                           : AC-3
Format/Info                      : Audio Coding 3
Mode extension                   : CM (complete main)
Codec ID                         : 2000
Duration                         : 1h 24mn
Bit rate mode                    : Constant
Bit rate                         : 96.0 Kbps
Channel(s)                       : 2 channels
Channel positions                : Front: L R
Sampling rate                    : 48.0 KHz
Bit depth                        : 16 bits
Compression mode                 : Lossy
Stream size                      : 58.4 MiB (6%)
Alignment                        : Split accross interleaves
Interleave, duration             : 96 ms (2.30 video frames)
Interleave, preload duration     : 96 ms
Language                         : English

Screenshots:
[img]http://leetleech.org/images/96263222337738751107.png[/img]
[img]http://leetleech.org/images/90543536267918476912.png[/img]
[img]http://leetleech.org/images/16249510810610200303.png[/img]
[img]http://leetleech.org/images/64304781169752647847.png[/img]
[img]http://leetleech.org/images/02023176329462459693.png[/img]

Note: N/A

Encoder: TheFuzz

Enjoy!

Respects to CaptainHomey, Cyanide, CM8, Rx, Pirate666, THC, 
ELEKTRI4KA, Killerhz, XtremE, PA and everyone in the struggle...